<?xml version="1.0" encoding="UTF-8" standalone="no"?>
<!-- Created with Inkscape (http://www.inkscape.org/) -->

<svg
   version="1.1"
   id="svg1"
   width="25"
   height="23"
   viewBox="0 0 25 23"
   xmlns="http://www.w3.org/2000/svg"
   xmlns:svg="http://www.w3.org/2000/svg">
  <defs
     id="defs1" />
  <path
     style="fill:#ffffff;fill-opacity:1"
     d="M 16.15,22.85 C 16.046847,22.746847 16,22.122222 16,20.85 V 19 L 9.15625,18.999303 C 1.7851973,18.998552 1.6548746,18.988095 0.9144607,18.338003 -0.02733208,17.511098 0.00582032,17.833089 0.00274525,9.483024 L 0,2.0285479 0.34804314,1.3623171 C 0.6297957,0.82298095 0.82298095,0.6297957 1.3623171,0.34804314 L 2.0285479,0 12.483024,0.00274525 c 11.472756,0.00301264 10.935784,-0.03065993 11.734391,0.73584315 0.744841,0.7148991 0.716902,0.4010076 0.755136,8.4839377 0.0391,8.2660799 0.04772,8.1650929 -0.766868,8.9796849 -0.664748,0.664749 -1.155197,0.795059 -3.018183,0.801916 l -1.5,0.0055 -1.48245,1.995177 C 16.755388,22.955872 16.49219,23.19219 16.15,22.85 Z M 21.088332,18 c 1.985471,0 2.315639,-0.09208 2.707225,-0.754979 0.311398,-0.527155 0.311398,-14.9628868 0,-15.4900418 C 23.325289,0.95887797 23.940219,1 12.505756,1 1.0983961,1 1.592171,0.96745261 1.1896159,1.7459084 0.89189102,2.3216447 0.90568324,16.739261 1.2044427,17.245021 1.6658093,18.026052 1.3829842,18 9.4005365,18 14.91123,18 16.736758,18.036758 16.85,18.15 c 0.09845,0.09845 0.15,0.621604 0.15,1.522217 v 1.372218 L 18.138869,19.522217 19.277738,18 Z M 3.1381632,12.828361 C 2.8767345,12.513358 3.009515,6.2479981 3.28125,6.0766866 3.7817359,5.7611623 3.934588,6.0994016 3.9728439,7.6070816 L 4.0081878,9 H 5 5.9918122 L 6.0271561,7.6070816 C 6.0654127,6.0993722 6.2182948,5.7610836 6.71875,6.0767627 c 0.3351598,0.2114133 0.3351598,6.6350613 0,6.8464743 -0.5004552,0.315679 -0.6533373,-0.02261 -0.6915939,-1.530319 L 5.9918122,10 H 4.9959061 4 v 1.35 C 4,12.731034 3.9169147,13 3.4903056,13 3.3749737,13 3.2165096,12.922762 3.1381632,12.828361 Z m 5.0150965,0.0249 C 7.9166439,12.616644 7.9355,6.3341414 8.1734187,6.1366865 8.4783901,5.8835827 11.752493,6.0097991 11.923453,6.28125 12.238694,6.781792 11.900545,6.9345894 10.392918,6.9728439 L 9,7.0081878 v 0.9904299 0.9904299 l 0.8931541,0.036726 c 1.5976659,0.065696 1.5976659,0.8827569 0,0.9484524 L 9,10.010952 v 0.99043 0.99043 l 1.392918,0.03534 c 1.507631,0.03825 1.845788,0.191057 1.530523,0.691594 -0.175872,0.279228 -3.5066309,0.39806 -3.7701813,0.13451 z m 4.9876603,-0.02158 c -0.263965,-0.318059 -0.133833,-6.5821541 0.14033,-6.7549964 0.159471,-0.1005366 0.278029,-0.1005406 0.4375,-1.48e-5 0.196379,0.1237915 0.22218,0.433301 0.252294,3.0265382 l 0.03354,2.888645 1.390624,0.03532 c 1.505208,0.03823 1.843355,0.191255 1.528229,0.691572 -0.187392,0.297517 -3.546105,0.397797 -3.782521,0.112933 z M 18.15,12.85 c -0.213518,-0.213518 -0.213518,-6.4864821 0,-6.7 0.277494,-0.2774938 2.09223,-0.1902393 2.729764,0.13125 C 22.859385,7.2795146 21.967797,10 19.661014,10 H 19 v 1.35 C 19,12.72341 18.916185,13 18.5,13 18.39,13 18.2325,12.9325 18.15,12.85 Z M 20.693182,8.6931818 C 21.432838,7.9535257 20.869682,7 19.693182,7 H 19 v 1 1 h 0.693182 c 0.569304,0 0.748013,-0.054831 1,-0.3068182 z"
     id="path1" />
</svg>
